<mxfile host="app.diagrams.net" agent="Mozilla/5.0 (Macintosh; Intel Mac OS X 10_15_7) AppleWebKit/605.1.15 (KHTML, like Gecko) Version/18.5 Safari/605.1.15" version="27.0.9">
  <diagram name="第 1 页" id="ArYdC2OwzvWPb4HBsunG">
    <mxGraphModel dx="772" dy="517" grid="1" gridSize="10" guides="1" tooltips="1" connect="1" arrows="1" fold="1" page="1" pageScale="1" pageWidth="827" pageHeight="1169" math="0" shadow="0">
      <root>
        <mxCell id="0" />
        <mxCell id="1" parent="0" />
        <mxCell id="ZH32siJ5HfbgLM5oxt_V-1" value="" style="shape=mxgraph.networks2.icon;aspect=fixed;fillColor=#EDEDED;strokeColor=#000000;gradientColor=#5B6163;network2IconShadow=1;network2bgFillColor=none;network2Icon=mxgraph.networks2.antenna;network2IconYOffset=0.0004;network2IconW=0.508;network2IconH=0.9997;" vertex="1" parent="1">
          <mxGeometry x="550" y="70" width="25.4" height="49.985" as="geometry" />
        </mxCell>
        <mxCell id="ZH32siJ5HfbgLM5oxt_V-2" value="&lt;font face=&quot;Times New Roman&quot;&gt;Server&lt;/font&gt;" style="text;html=1;align=center;verticalAlign=middle;resizable=0;points=[];autosize=1;strokeColor=none;fillColor=none;" vertex="1" parent="1">
          <mxGeometry x="537.7" y="119.99" width="50" height="30" as="geometry" />
        </mxCell>
      </root>
    </mxGraphModel>
  </diagram>
</mxfile>
